<svg width="16" height="16" viewBox="0 0 16 16" fill="none" xmlns="http://www.w3.org/2000/svg">
<path d="M6.07985 0.233941L6.25885 0.960941C5.55105 1.13633 4.87353 1.41677 4.24885 1.79294L3.86585 1.14994C4.55267 0.733911 5.29992 0.425029 6.07985 0.233941ZM9.91985 0.233941L9.74185 0.959941C10.4496 1.13533 11.1272 1.41577 11.7518 1.79194L12.1398 1.14894C11.4501 0.733992 10.7017 0.425518 9.91985 0.233941ZM1.14985 3.86394C0.735012 4.55208 0.426213 5.2988 0.233849 6.07894L0.960849 6.25894C1.13624 5.55115 1.41668 4.87363 1.79285 4.24894L1.14985 3.86294V3.86394ZM0.749849 7.99994C0.748606 7.63639 0.775688 7.27329 0.830849 6.91394L0.0908487 6.79994C-0.0296318 7.59473 -0.0296318 8.40315 0.0908487 9.19794L0.830849 9.08594C0.775688 8.72659 0.748606 8.3635 0.749849 7.99994ZM12.1338 14.8479L11.7498 14.2079C11.1267 14.5848 10.45 14.865 9.74285 15.0389L9.92285 15.7669C10.7018 15.5733 11.4471 15.2635 12.1338 14.8479ZM15.2508 7.99994C15.2508 8.36461 15.2235 8.72661 15.1688 9.08594L15.9088 9.19794C16.0293 8.40315 16.0293 7.59473 15.9088 6.79994L15.1688 6.91394C15.2235 7.27394 15.2508 7.63594 15.2508 7.99994ZM15.7668 9.91794L15.0388 9.73794C14.8636 10.4464 14.5832 11.1246 14.2068 11.7499L14.8498 12.1369C15.2654 11.4476 15.5746 10.6995 15.7668 9.91794ZM9.08685 15.1679C8.36685 15.2779 7.63385 15.2779 6.91385 15.1679L6.80185 15.9099C7.59599 16.0302 8.40371 16.0302 9.19785 15.9099L9.08585 15.1689L9.08685 15.1679ZM13.8368 12.2999C13.405 12.886 12.8868 13.4033 12.2998 13.8339L12.7458 14.4389C13.3923 13.9641 13.9637 13.3947 14.4408 12.7499L13.8368 12.2999ZM12.2998 2.16294C12.8868 2.59494 13.4048 3.11294 13.8368 3.69994L14.4408 3.24994C13.9654 2.60481 13.3957 2.03478 12.7508 1.55894L12.2998 2.16294ZM2.16285 3.69994C2.59445 3.11278 3.11269 2.59454 3.69985 2.16294L3.24985 1.55894C2.60472 2.0344 2.03468 2.60409 1.55885 3.24894L2.16285 3.69894V3.69994ZM14.8508 3.86294L14.2068 4.24994C14.5838 4.87294 14.8648 5.54994 15.0388 6.25694L15.7668 6.07694C15.5744 5.29714 15.2656 4.55077 14.8508 3.86294ZM6.91285 0.830941C7.6328 0.722631 8.3649 0.722631 9.08485 0.830941L9.19685 0.0909413C8.40271 -0.0293372 7.59499 -0.0293372 6.80085 0.0909413L6.91285 0.830941ZM2.54685 14.6399L0.999849 14.9999L1.35985 13.4509L0.630849 13.2809L0.269849 14.8289C0.240682 14.9531 0.243669 15.0827 0.278528 15.2054C0.313386 15.3281 0.378964 15.4399 0.469061 15.5302C0.559158 15.6205 0.670797 15.6863 0.793422 15.7214C0.916047 15.7566 1.04561 15.7598 1.16985 15.7309L2.71785 15.3739L2.54685 14.6399ZM0.785849 12.6119L1.51785 12.7799L1.76785 11.7069C1.40264 11.0949 1.13034 10.432 0.959849 9.73994L0.232849 9.91994C0.396034 10.5827 0.643376 11.2219 0.968849 11.8219L0.785849 12.6119ZM4.28585 14.2349L3.21285 14.4849L3.38285 15.2159L4.17285 15.0319C4.77285 15.3589 5.41185 15.6059 6.07485 15.7689L6.25485 15.0409C5.56437 14.869 4.90318 14.5957 4.29285 14.2299L4.28585 14.2349ZM7.99985 1.49994C7.14626 1.5002 6.30107 1.66859 5.51256 1.99549C4.72404 2.32239 4.00764 2.80139 3.40424 3.40516C2.80085 4.00893 2.32228 4.72563 1.99587 5.51435C1.66945 6.30306 1.50159 7.14835 1.50185 8.00194C1.50296 9.22455 1.84887 10.4221 2.49985 11.4569L1.87485 14.1249L4.53985 13.4999C5.99754 14.3748 7.73991 14.644 9.39365 14.2497C11.0474 13.8555 12.4809 12.8292 13.3871 11.3908C14.2934 9.95236 14.6001 8.21622 14.2417 6.55434C13.8834 4.89246 12.8883 3.43705 11.4698 2.49994C10.4309 1.84554 9.22775 1.49883 7.99985 1.49994Z" fill="white"/>
</svg>
